<svg width="637" height="601" viewBox="0 0 637 601" fill="none" xmlns="http://www.w3.org/2000/svg">
<circle cx="303.213" cy="321.261" r="148.998" stroke="#BBBBBB" stroke-width="8"/>
<path fill-rule="evenodd" clip-rule="evenodd" d="M0 41.415H0.109128L0.000252181 41.7163L184.551 211.94C158.055 240.687 141.871 279.084 141.871 321.262C141.871 410.369 214.106 482.604 303.213 482.604C350.075 482.604 392.271 462.626 421.747 430.722L605.871 600.552H0V41.415Z" fill="#C4C4C4"/>
<path fill-rule="evenodd" clip-rule="evenodd" d="M480.642 478.205C552.722 381.189 544.13 246.705 457.576 166.76C371.022 86.8156 236.28 88.9116 145.283 168.456L139.374 162.999C233.235 80.419 373.004 77.756 463.004 160.883C553.004 244.011 561.43 383.551 486.55 483.662L480.642 478.205Z" fill="#BBBBBB"/>
<circle cx="460.384" cy="164.091" r="39.7794" fill="#C4C4C4"/>
<circle cx="528.259" cy="273.693" r="39.7794" fill="#C4C4C4"/>
<circle cx="523.808" cy="409.443" r="39.7794" fill="#C4C4C4"/>
</svg>
