<svg width="150" height="165" viewBox="0 0 150 165" fill="none" xmlns="http://www.w3.org/2000/svg">
<circle cx="60" cy="83" r="58" stroke="#BBBBBB" stroke-width="4"/>
<path fill-rule="evenodd" clip-rule="evenodd" d="M0 139.649C15.0121 155.275 36.1203 165 59.5 165C105.063 165 142 128.063 142 82.5C142 36.9365 105.063 0 59.5 0C36.1203 0 15.0121 9.72521 0 25.3509V31.2925C14.3958 14.5807 35.7123 4 59.5 4C102.854 4 138 39.1456 138 82.5C138 125.854 102.854 161 59.5 161C35.7123 161 14.3958 150.419 0 133.708V139.649Z" fill="#BBBBBB"/>
<circle cx="120" cy="28" r="10" fill="#C4C4C4"/>
<circle cx="120" cy="138" r="10" fill="#C4C4C4"/>
<circle cx="140" cy="83" r="10" fill="#C4C4C4"/>
</svg>
