<svg width="93" height="93" viewBox="0 0 93 93" fill="none" xmlns="http://www.w3.org/2000/svg">
<circle cx="46.35" cy="46.35" r="44.85" fill="#EFEBEB" stroke="#703623" stroke-width="3"/>
<path d="M67.0742 53.8869C67.0742 53.8869 63.3813 57.3161 69.9758 59.1625L62.59 66.5484H55.2041C55.2041 66.5484 50.1923 66.2846 53.8852 72.3516H43.334L38.0584 67.0759C38.0584 67.0759 34.6292 63.383 32.7828 69.9775L25.3969 62.5917V55.2058C25.3969 55.2058 25.6607 50.194 19.5938 53.8869V43.3357L24.8694 38.0601C24.8694 38.0601 28.5623 34.6309 21.704 33.0483L29.0898 25.3986H36.7395C36.7395 25.3986 41.7513 25.6624 38.0584 19.5955H48.6096L53.8852 24.8711C53.8852 24.8711 57.3144 28.564 59.1608 21.7057L66.5467 29.0916V36.7412C66.5467 36.7412 66.2829 41.753 72.3498 38.0601V48.6113L67.0742 53.8869ZM51.2474 45.9735C51.2474 44.5743 50.6916 43.2325 49.7022 42.2431C48.7128 41.2537 47.371 40.6979 45.9718 40.6979C44.5726 40.6979 43.2307 41.2537 42.2414 42.2431C41.252 43.2325 40.6962 44.5743 40.6962 45.9735C40.6962 47.3727 41.252 48.7146 42.2414 49.7039C43.2307 50.6933 44.5726 51.2491 45.9718 51.2491C47.371 51.2491 48.7128 50.6933 49.7022 49.7039C50.6916 48.7146 51.2474 47.3727 51.2474 45.9735Z" fill="#2D2C2C"/>
</svg>
