<svg width="93" height="93" viewBox="0 0 93 93" fill="none" xmlns="http://www.w3.org/2000/svg">
<circle cx="46.5776" cy="46.3481" r="44.8481" fill="#EFEBEB" stroke="#703623" stroke-width="3"/>
<path d="M72.8606 70.3688L65.1143 62.633V32.8722L61.4559 26.1113C61.186 25.5958 60.7811 25.1642 60.285 24.8632C59.7888 24.5621 59.2202 24.403 58.6405 24.403C58.0609 24.403 57.4923 24.5621 56.9961 24.8632C56.4999 25.1642 56.095 25.5958 55.8251 26.1113L52.3894 32.8882V49.9103L23.2971 20.8208C23.0746 20.5954 22.7904 20.4417 22.4806 20.3792C22.1709 20.3168 21.8496 20.3485 21.5578 20.4702C21.266 20.5919 21.0169 20.7982 20.8423 21.0628C20.6676 21.3274 20.5753 21.6382 20.5772 21.9556V34.8701H24.0288V37.4274H20.5772V47.6567H24.0288V50.214H20.5772V60.8428H24.0288V63.4002H20.5772V71.5037C20.5772 71.9276 20.7448 72.3341 21.0431 72.6338C21.3414 72.9336 21.7459 73.102 22.1678 73.102H71.7313C72.0472 73.1038 72.3565 73.0111 72.6198 72.8356C72.8831 72.6601 73.0884 72.4098 73.2095 72.1166C73.3307 71.8234 73.3622 71.5006 73.3 71.1893C73.2379 70.878 73.0849 70.5924 72.8606 70.3688ZM33.3021 60.4433V45.9625L47.7289 60.4433H33.3021ZM61.9331 63.8157H55.5706V59.9318H61.9331V63.8157ZM61.9331 57.4224H55.5706V33.6713L58.6564 27.6457L61.9331 33.6873V57.4224Z" fill="#2D2C2C"/>
</svg>
