<svg width="93" height="93" viewBox="0 0 93 93" fill="none" xmlns="http://www.w3.org/2000/svg">
<circle cx="46.35" cy="46.35" r="44.85" fill="#EFEBEB" stroke="#703623" stroke-width="3"/>
<path fill-rule="evenodd" clip-rule="evenodd" d="M27.1945 27.9134L29.0596 28.3192H63.165C64.0785 28.3192 63.7814 28.2869 65.0301 27.7105V20.4058C64.0037 20.1229 64.2276 20.0275 63.7452 20H61.2998C61.2998 21.6916 61.4402 21.6974 61.0334 23.2465H59.1683V20H56.2373V23.2465H55.438L54.3722 22.4349V20H51.7077C51.7077 21.656 51.6844 21.58 51.4413 23.2465H49.8426V20H47.1781V23.0436C46.0029 23.2226 46.1969 23.2465 45.0465 23.2465V20H42.3821C42.3821 21.6916 42.5224 21.6974 42.1156 23.2465L40.2505 22.4349V20H37.586C37.586 21.6916 37.7264 21.6974 37.3195 23.2465H35.9873C35.5805 21.6974 35.7208 21.6916 35.7208 20H33.0564V23.0436C31.8812 23.2226 32.0752 23.2465 30.9248 23.2465V20H27.461C26.7938 22.1807 27.1945 25.3822 27.1945 27.9134Z" fill="#2D2C2C"/>
<path fill-rule="evenodd" clip-rule="evenodd" d="M33.0557 33.5949H39.7168L39.9833 34.8123C38.4693 34.9083 39.633 35.1855 37.6031 35.2317C36.7345 35.2515 35.1359 35.1296 34.3606 35.2334C33.2041 35.3882 33.7763 35.2987 33.8036 35.5276L37.6837 40.4188C37.7242 40.4713 37.8407 40.6218 37.8813 40.6741C38.238 41.1334 38.5548 41.5422 38.9859 42.0649C39.0166 42.1021 39.0574 42.1529 39.0887 42.1895C39.8608 43.0938 38.5157 41.5711 39.3036 42.4317L40.2498 43.5373H51.9735C52.2453 42.9653 52.2709 43.2005 52.7684 42.5194L55.3681 39.2236C55.3978 39.1853 55.4372 39.1342 55.467 39.096C56.3566 37.9536 57.7783 36.4704 58.1017 35.2181L47.7098 35.2185C43.8145 35.2314 44.0494 34.7689 43.9801 33.5949H59.1676V29.7396H33.0557V33.5949Z" fill="#2D2C2C"/>
<path fill-rule="evenodd" clip-rule="evenodd" d="M38.1182 70.727C39.2516 70.8214 39.0912 71.012 40.2455 71.339L43.9146 72.4001C43.9796 72.4166 44.0499 72.434 44.1143 72.4509C44.1775 72.4675 44.2447 72.4897 44.3075 72.5067C44.3698 72.5236 44.4349 72.5484 44.4976 72.5651L44.8869 72.6759C45.0612 72.712 45.2686 72.7388 45.492 72.7561H46.7355C46.9545 72.739 47.1601 72.7124 47.3363 72.6759C47.405 72.6617 47.4686 72.6389 47.5344 72.6228L49.4949 72.086C49.5502 72.0663 49.616 72.0373 49.6703 72.0167C49.7987 71.9681 50.1773 71.807 50.1889 71.8029L68.4937 66.2634C68.9554 66.1222 69.0004 66.107 69.4453 65.9735C70.6675 65.6067 71.2805 65.1238 72.2235 64.4368L69.4885 63.4761C69.4092 63.453 69.1838 63.3855 69.1026 63.3641L67.5079 62.9552C67.4526 62.9355 67.3868 62.9064 67.3325 62.8859L65.215 62.2664C65.154 62.2488 65.0845 62.227 65.0254 62.2079L64.1495 61.8604C64.075 61.8339 63.8574 61.7603 63.7783 61.7373L62.7555 61.5016C62.6907 61.4854 62.6216 61.4662 62.5576 61.4494L51.6705 58.1731C51.6095 58.1542 51.5416 58.1322 51.48 58.1132C50.1465 57.7038 49.2821 57.0372 49.2894 58.9376L49.2201 65.5866C48.8937 66.4549 48.3177 66.6564 47.0029 67.1447C46.9479 67.1651 46.8794 67.1913 46.8247 67.2119L39.1616 69.8984C38.2415 70.2482 38.3779 69.9862 38.1182 70.727Z" fill="#2D2C2C"/>
<path fill-rule="evenodd" clip-rule="evenodd" d="M39.983 45.7694C39.983 49.4848 39.6811 48.3536 42.3821 51.6529C43.2509 52.7142 42.5077 52.1062 44.5126 53.277V64.0312L43.0917 64.5723C42.4891 64.8024 43.3384 64.4773 42.7368 64.7079L32.5225 68.2922V69.9155C33.2723 69.9155 34.1197 69.9911 34.8243 69.8422L39.7165 68.0892C39.773 68.0695 39.8419 68.0446 39.8984 68.0249C39.955 68.0051 40.0238 67.9803 40.0806 67.9607C41.355 67.5186 42.3148 67.2187 43.5966 66.783C43.6722 66.7572 43.8918 66.6853 43.9672 66.6594C44.0243 66.6398 44.0945 66.6166 44.1514 66.5968L45.4012 66.1282C45.9975 65.8997 45.1589 66.2207 45.7561 65.9926L47.1771 65.4515V53.48C47.2396 53.4627 47.3287 53.3731 47.3565 53.4137L48.0822 53.1547C48.9004 52.8341 48.6363 53.1292 49.3859 52.1183L49.6743 51.7293C52.5544 47.9098 51.9732 49.3265 51.9732 44.7549H40.2495C40.1103 45.21 39.983 45.2214 39.983 45.7694Z" fill="#2D2C2C"/>
<path fill-rule="evenodd" clip-rule="evenodd" d="M20 64.8428C20.564 65.4291 20.9894 65.4327 22.3952 65.8595L27.7144 67.4902C27.771 67.5098 27.8394 67.5352 27.8958 67.555L30.3915 68.2923C31.1163 67.7686 31.0767 67.4242 31.8479 66.9665C32.3539 66.6661 33.3606 66.3886 34.0107 66.1787C34.9378 65.8793 35.3761 65.7385 36.208 65.4171C36.9795 65.119 37.6955 64.9148 38.6033 64.6034C38.9598 64.4812 39.2133 64.3867 39.6724 64.2001C43.4209 62.6765 42.6307 64.5508 42.9144 57.944C41.4599 57.8518 42.1121 57.6752 40.5546 58.1665L28.3293 61.8521C28.2952 61.8616 27.751 62.019 27.7497 62.0194L21.0254 64.0004C20.1395 64.3139 20.2763 64.0547 20 64.8428Z" fill="#2D2C2C"/>
<path fill-rule="evenodd" clip-rule="evenodd" d="M56.5031 45.7695C56.5031 49.5884 61.1936 51.5028 53.5723 54.2916V55.509C54.0801 55.6491 55.5153 56.6697 58.3796 54.706C59.2332 54.1207 59.7718 53.4307 60.2063 52.6477C60.2314 52.6025 60.257 52.5476 60.2818 52.5022L60.5206 52.0753C60.9739 51.1489 60.9506 49.6983 60.4797 48.8284C60.4556 48.784 60.4207 48.7332 60.3952 48.6899L59.9601 48.0068C59.9357 47.9613 59.9054 47.9094 59.8831 47.8624L59.1677 45.7695C59.1677 44.8817 59.1439 45.8022 59.3908 45.3308C59.7757 44.596 59.8634 44.3357 60.5746 43.7972C61.0313 43.4514 60.5956 43.7258 61.1486 43.4227C62.0193 42.9455 62.4468 42.8712 63.4308 42.7258L63.9637 41.5084C63.4873 41.3619 63.3698 41.1518 62.8979 40.6968C59.3656 40.7567 56.5031 43.5607 56.5031 45.7695Z" fill="#2D2C2C"/>
<path fill-rule="evenodd" clip-rule="evenodd" d="M62.365 45.5663C62.387 46.3183 62.2064 46.0794 62.7983 46.6567C63.908 47.7389 61.8383 45.8188 63.0627 46.8611L63.4308 47.1895H64.4966C64.8073 46.6034 65.1264 46.8125 66.2811 46.3165C66.3323 46.2945 66.401 46.2659 66.4501 46.2423C66.4986 46.219 66.565 46.1872 66.6113 46.1622L68.2393 44.9671C71.0999 42.734 68.306 38.2215 68.2269 37.8558C67.8326 36.0334 69.0669 34.9243 70.8988 34.2092C72.1735 33.7116 71.9725 33.9124 72.7564 32.986L71.4242 31.9715C69.524 31.9715 70.6009 31.9599 69.6667 32.2563C69.1011 32.4358 68.8242 32.5301 68.347 32.8746C68.292 32.9142 68.0216 33.1338 67.9558 33.1854C66.6846 34.1826 66.5133 34.0355 65.9237 35.0873C65.3786 36.0596 65.0982 38.1316 66.1694 39.8285C66.8858 40.9635 66.9823 42.6789 66.1768 43.5993C65.4325 44.4499 64.8145 44.6471 63.7883 45.0268L63.0756 45.2958C62.3187 45.5831 63.4219 45.275 62.365 45.5663Z" fill="#2D2C2C"/>
</svg>
