<svg width="93" height="93" viewBox="0 0 93 93" fill="none" xmlns="http://www.w3.org/2000/svg">
<circle cx="46.35" cy="46.35" r="44.85" fill="#EFEBEB" stroke="#703623" stroke-width="3"/>
<path d="M45.9417 23.3635L50.3824 34.9568C51.6766 38.3353 48.8294 44.8423 51.0067 47.2007L57.2789 53.9951L57.3585 63.5313L60.3013 66.7027L61.8683 67.7096C62.8721 68.3546 62.9287 66.159 63.8343 66.353C64.5151 66.4989 65.8771 66.9369 66.8184 66.9369H68.471V69.7818H47.2073V66.9369H49.1945C50.7634 66.9369 51.8512 66.7591 52.4474 66.4139C53.0331 66.0688 53.3259 65.6086 53.3259 65.0333C53.3259 64.5835 53.2109 64.0606 52.9599 63.4644L49.4351 55.076H32.5225L30.8698 58.9042C30.2004 60.4939 29.8553 61.6863 29.8553 62.4603C29.8553 63.7886 30.3469 64.8659 31.3301 65.6922C32.3132 66.5185 33.652 66.9369 35.3464 66.9369H36.7793V69.7818H19.5947V66.9369H20.5779C21.6762 66.9369 22.6488 66.5812 23.4856 65.891C24.6675 64.9077 25.5879 63.6527 26.2469 62.1256L42.5111 23.3635H45.9417ZM41.0154 34.8164L33.7775 52.0742H48.18L41.0154 34.8164Z" fill="#2D2C2C" stroke="black" stroke-width="0.2"/>
<path fill-rule="evenodd" clip-rule="evenodd" d="M55.6953 27.3623H68.7231V35.6044H55.6953V27.3623Z" fill="#2D2C2C" stroke="black" stroke-width="0.2"/>
<path fill-rule="evenodd" clip-rule="evenodd" d="M52.04 37.7312H72.7785V45.7739H71.9788V46.6355L67.1592 51.9554H57.5719L53.0356 46.6006V45.7739H52.04V37.7312Z" fill="#2D2C2C" stroke="black" stroke-width="0.2"/>
<path fill-rule="evenodd" clip-rule="evenodd" d="M58.7842 53.3342H65.5641V62.1248L63.1539 65.6974H61.6586L58.7842 62.0583V53.3342Z" fill="#2D2C2C" stroke="black" stroke-width="0.2"/>
</svg>
