<?xml version="1.0" encoding="UTF-8"?>
<!DOCTYPE svg PUBLIC "-//W3C//DTD SVG 1.1//EN" "http://www.w3.org/Graphics/SVG/1.1/DTD/svg11.dtd">
<!-- Creator: CorelDRAW -->
<svg xmlns="http://www.w3.org/2000/svg" xml:space="preserve" width="74.6569mm" height="137.972mm" style="shape-rendering:geometricPrecision; text-rendering:geometricPrecision; image-rendering:optimizeQuality; fill-rule:evenodd; clip-rule:evenodd"
viewBox="0 0 17.3553 32.0741"
 xmlns:xlink="http://www.w3.org/1999/xlink">
 <defs>
  <style type="text/css">
   <![CDATA[
    .str0 {stroke:#373435;stroke-width:0.017714}
    .str1 {stroke:#D5BFA8;stroke-width:0.017714}
    .fil0 {fill:none}
    .fil1 {fill:#D5BFA8}
   ]]>
  </style>
 </defs>
 <g id="Layer_x0020_1">
  <metadata id="CorelCorpID_0Corel-Layer"/>
  <path class="fil0 str0" d="M0.237001 18.1306l6.11557 0c0.320503,-0.694009 0.503432,-1.92676 0.022991,-1.64703 -1.34531,0.783206 -1.35412,-1.64729 -0.00320805,-0.873822 0.482486,0.276218 0.28991,-1.15683 -0.0356838,-1.84847l-0.0700425 0c-0.688615,-0.332057 -2.6319,-0.490251 -2.3602,-0.00520727 0.76075,1.35812 -2.00173,1.32223 -1.20593,-0.0156916 0.284238,-0.477814 -1.76654,-0.371553 -2.4635,-0.0575125l0 4.44773z"/>
  <path class="fil0 str0" d="M1.02462 11.5822c0.698565,0.310437 2.799,0.439457 2.51235,-0.0369391 -0.802687,-1.33376 1.9564,-1.38388 1.20267,-0.0218287 -0.269174,0.486462 1.61156,0.285191 2.29838,-0.0504222 0.330894,-0.689127 0.506407,-1.95789 0.0218287,-1.68534 -1.35684,0.763028 -1.32951,-1.65503 0.0096939,-0.861548 0.478302,0.283401 0.332382,-1.06419 0.0171561,-1.76062l-0.104308 0c-0.698356,0.310995 -2.73619,0.465842 -2.44991,-0.0107168 0.801618,-1.33443 -1.93504,-1.38193 -1.18017,-0.0204571 0.269546,0.486206 -1.58385,0.263781 -2.27098,-0.0712513 -0.331894,0.688639 -0.510824,2.14072 -0.0258736,1.86892 1.35796,-0.761122 1.32679,1.68516 -0.0113212,0.889676 -0.47793,-0.284099 -0.33373,0.993101 -0.0195273,1.68999l0 0.0705306z"/>
  <path class="fil0 str0" d="M0.989266 26.028c0.694055,0.320387 2.7214,0.446849 2.44156,-0.0335916 -0.783532,-1.34508 1.96045,-1.35563 1.1873,-0.00455636 -0.276171,0.482533 1.61611,0.341007 2.30771,0.0153196 0.352467,-0.678317 0.592165,-2.1168 0.0992404,-1.85974 -1.38032,0.719812 -1.2759,-1.71226 0.0376132,-0.876775 0.469096,0.298349 0.344377,-0.941424 0.0513288,-1.6475l0 -0.0802245c-0.69359,0.321386 -2.83401,0.476558 -2.55491,-0.00425416 0.781579,-1.34624 -1.99446,-1.35291 -1.21932,-0.0028826 0.276846,0.482114 -1.63034,0.317248 -2.3224,-0.00746221 0.318666,0.694845 0.485043,2.06403 0.00534675,1.78303 -1.3432,-0.786879 -1.35863,1.65935 -0.00562571,0.889583 0.48323,-0.274963 0.299581,1.08446 -0.0278496,1.77526l0 0.053793z"/>
  <path class="fil0 str0" d="M9.91581 31.1453c0.685245,-0.338868 2.79765,-0.564617 2.53078,-0.076877 -0.747267,1.36561 2.03772,1.30179 1.22871,-0.0281751 -0.288934,-0.474978 1.68399,-0.34282 2.38405,-0.0357303 -0.329732,-0.689661 -0.491576,-2.07542 -0.00746221,-1.80209 1.35554,0.76533 1.33234,-1.6508 -0.00827584,-0.859549 -0.478767,0.282611 -0.34196,-0.940052 -0.0255482,-1.63597l-0.0792017 0c-0.691521,-0.325733 -2.62553,-0.496179 -2.34941,-0.0136226 0.773071,1.35117 -1.95059,1.34057 -1.16701,-0.00453312 0.279844,-0.480371 -1.62439,-0.324897 -2.31845,-0.00455636 0.293049,0.706074 0.417767,1.94585 -0.0513288,1.6475 -1.31351,-0.835488 -1.41794,1.59659 -0.0376132,0.876775 0.492924,-0.257063 0.253227,1.18142 -0.0992404,1.85974l0 0.0770862z"/>
  <path class="fil0 str0" d="M9.29084 15.5552c0.690754,-0.327431 2.82736,-0.522169 2.5524,-0.0389383 -0.769886,1.35296 2.01417,1.33553 1.22738,-0.00771792 -0.280984,-0.47972 1.66235,-0.310484 2.35715,0.00822935 0.306741,-0.700192 0.401727,-2.05745 -0.073111,-1.76822 -1.32951,0.809754 -1.38632,-1.61314 -0.0202944,-0.866662 0.487833,0.266617 0.330941,-1.01323 -0.00829909,-1.69827l0 -0.0546764c-0.691684,-0.325548 -2.6823,-0.467027 -2.40604,0.0154126 0.773559,1.35092 -1.9902,1.34111 -1.20704,-0.00430065 0.279682,-0.480441 -1.72819,-0.353188 -2.42215,-0.0325919l0 4.44773z"/>
  <path class="fil1 str1" d="M9.90879 23.6755c0.692962,0.322828 2.86126,0.452545 2.58313,-0.0288492 -0.778859,-1.34782 2.01817,-1.34882 1.24031,-0.000418442 -0.277799,0.481533 1.68548,0.350352 2.37824,0.0270825 0.322223,-0.693241 0.481859,-1.95777 0.000674156,-1.67925 -1.3472,0.779952 -1.35008,-1.66235 -0.0010461,-0.885585 0.481812,0.27738 0.318992,-1.17082 -0.00492831,-1.86325l0 -0.0859665c-0.692428,-0.323851 -2.76176,-0.452405 -2.48433,0.0293839 0.776813,1.34903 -2.01947,1.34578 -1.23956,-0.00146455 0.278519,-0.481115 -1.78084,-0.357349 -2.47406,-0.0350561 -0.340123,0.684617 -0.542393,2.13875 -0.0541417,1.87276 1.36698,-0.744686 1.306,1.71619 -0.0224564,0.904694 -0.47442,-0.289864 -0.341332,1.04531 -0.035521,1.74592l0.1137 0z"/>
  <path class="fil0 str0" d="M0.949118 4.38452c0.696147,-0.315784 2.62058,-0.482719 2.3376,-0.00416117 -0.792389,1.33997 1.9405,1.36849 1.17629,0.0122743 -0.272963,-0.484323 1.67814,-0.276985 2.36754,0.0532816 -0.298744,-0.703679 -0.405516,-2.16253 0.0659975,-1.86795 1.32023,0.824818 1.40538,-1.61832 0.0309647,-0.887422 -0.490878,0.261015 -0.289283,-1.00061 0.0577217,-1.68169l-6.11552 0c-0.327523,0.690684 -0.495969,2.10836 -0.0127392,1.83345 1.35312,-0.76963 1.33748,1.66219 -0.00562571,0.875147 -0.47965,-0.281053 -0.32843,0.972156 -0.00981013,1.66707l0.107586 0z"/>
  <path class="fil0 str0" d="M10.8769 6.24508c0.695799,0.316621 2.8169,0.484672 2.5345,0.00581169 -0.790831,-1.34085 1.99062,-1.36665 1.22478,-0.0113212 -0.273498,0.483997 1.67488,0.278194 2.36468,-0.0512823 0.328105,-0.690429 0.528817,-2.09776 0.0453312,-1.82331 -1.35384,0.768398 -1.33594,-1.66435 0.0064161,-0.8761 0.479441,0.281518 0.298395,-0.985709 -0.0195273,-1.68086l-6.11562 0c-0.347004,0.681083 -0.5486,1.94271 -0.0577217,1.68169 1.37442,-0.730901 1.28926,1.71224 -0.0309647,0.887422 -0.471514,-0.294583 -0.364742,1.16427 -0.0659975,1.86795l0.114118 0z"/>
 </g>
</svg>
