<svg width="93" height="93" viewBox="0 0 93 93" fill="none" xmlns="http://www.w3.org/2000/svg">
<circle cx="46.35" cy="46.35" r="44.85" fill="#EFEBEB" stroke="#703623" stroke-width="3"/>
<path d="M62.5535 36.1757H36.1755C33.2739 36.1757 30.8999 38.5497 30.8999 41.4513V57.2781C30.8999 58.6773 31.4557 60.0192 32.445 61.0086C33.4344 61.9979 34.7763 62.5537 36.1755 62.5537H62.5535C65.4815 62.5537 67.8291 60.2061 67.8291 57.2781V41.4513C67.8291 40.0521 67.2733 38.7103 66.2839 37.7209C65.2946 36.7315 63.9527 36.1757 62.5535 36.1757ZM52.0023 57.2781H36.1755V52.0025H52.0023V57.2781ZM62.5535 46.7269H36.1755V41.4513H62.5535V46.7269ZM73.1047 30.9001H25.6242V73.105H20.3486V20.3489H25.6242V25.6245H73.1047V30.9001Z" fill="#2D2C2C"/>
</svg>
