<svg width="93" height="93" viewBox="0 0 93 93" fill="none" xmlns="http://www.w3.org/2000/svg">
<circle cx="46.35" cy="46.35" r="44.85" fill="#EFEBEB" stroke="#703623" stroke-width="3"/>
<path fill-rule="evenodd" clip-rule="evenodd" d="M26.5747 40.36L36.6686 34.9387C37.186 34.4271 37.4504 33.9033 37.1562 33.4151C34.9126 29.6924 32.9942 26.6454 30.6505 22.9846C29.9435 21.8803 30.9096 19.9241 31.774 19.3254C32.2274 19.0112 34.2872 18.5538 35.4885 20.5307C36.9471 22.9312 37.2852 24.4614 38.413 26.9285C40.4571 31.4002 40.5296 32.7075 42.0183 32.0654L52.162 26.6172C53.8896 25.6893 56.0535 26.3271 56.9706 28.0346L75.6277 62.7718C76.5448 64.4793 75.8816 66.6355 74.154 67.5634L48.5666 81.3063C46.8389 82.2342 44.675 81.5964 43.758 79.8889L25.1008 45.1517C24.1838 43.4442 24.847 41.288 26.5746 40.3601L26.5747 40.36ZM32.9352 21.0501C33.331 20.8375 33.8223 20.9823 34.0324 21.3735C34.2425 21.7647 34.092 22.2542 33.6961 22.4668C33.3003 22.6794 32.809 22.5346 32.5989 22.1434C32.3888 21.7522 32.5394 21.2627 32.9352 21.0501Z" fill="#2D2C2C"/>
</svg>
